<svg width="150" height="134" viewBox="0 0 150 134" fill="none" xmlns="http://www.w3.org/2000/svg">
<path d="M76.6196 65.792C90.3004 65.792 103.981 65.792 118.076 65.792C115.957 68.2638 113.77 70.613 111.354 72.7951C110.844 73.2587 110.353 73.729 109.872 74.2193C109.078 75.0239 108.234 75.7572 107.378 76.4905C107.137 76.6978 106.896 76.9051 106.658 77.1124C105.274 78.307 103.881 79.4883 102.463 80.6384C101.975 81.0329 101.491 81.4297 101.01 81.8286C98.7366 83.7031 96.3941 85.4661 94.0047 87.189C93.8442 87.3049 93.6838 87.4208 93.5188 87.539C88.8026 90.9447 83.859 94.0405 78.8485 96.996C78.7103 97.0807 78.5721 97.1654 78.4295 97.2523C77.3618 97.8875 77.3618 97.8875 76.6196 97.8875C76.6196 87.296 76.6196 76.7045 76.6196 65.792Z" fill="black"/>
<path d="M50.9877 65.792C58.2694 65.792 65.5511 65.792 73.0534 65.792C73.0534 74.177 73.0534 82.5619 73.0534 91.201C69.3513 91.201 65.9746 90.1712 62.8007 88.3035C62.6669 88.2299 62.5354 88.1541 62.3972 88.0783C57.3132 85.2165 53.4239 79.9943 51.8436 74.3954C51.6207 73.4392 51.4313 72.4853 51.2663 71.5179C51.2373 71.3575 51.2084 71.1947 51.1794 71.0298C50.9052 69.249 50.9877 67.6553 50.9877 65.792Z" fill="black"/>
<path d="M81.7206 39.2625C82.0639 39.3761 82.0639 39.3761 82.4138 39.492C82.8039 39.6013 82.8039 39.6013 83.1984 39.7127C86.4414 40.6956 89.243 42.1266 91.775 44.3955C92.0492 44.614 92.3233 44.8324 92.5975 45.0486C92.7668 45.2024 92.9385 45.3539 93.1123 45.51C93.348 45.803 93.2366 45.6916 93.348 45.803C93.5389 45.9939 93.5709 46.0259 93.781 46.1786C94.151 46.5843 94.4831 46.9832 94.8129 47.4179C94.9088 47.5449 95.0069 47.6742 95.1071 47.8057C98.2387 52.0338 100.022 56.7323 100.022 62.0035C92.2988 62.0035 84.5758 62.0035 76.6188 62.0035C76.6188 55.016 76.6188 48.0286 76.6188 40.8294C80.1114 38.8345 80.1114 38.8345 81.7206 39.2625Z" fill="black"/>
<path d="M73.0533 104.351C73.0533 109.941 73.0533 115.531 73.0533 121.291C72.3178 121.585 71.5823 121.879 70.8245 122.182C68.5288 123.7 67.2115 125.385 66.6454 128.115C66.6275 128.291 66.6075 128.465 66.5896 128.646C65.1141 128.528 63.6966 128.323 62.2567 127.977C62.0606 127.93 61.8645 127.883 61.6616 127.834C57.2396 126.731 52.8911 125.187 48.8145 123.143C48.6251 123.049 48.4356 122.953 48.2395 122.855C45.7743 121.598 43.3115 120.169 41.1807 118.393C41.1807 118.246 41.1807 118.099 41.1807 117.947C41.4816 117.847 41.4816 117.847 41.7914 117.744C51.9015 114.37 61.8489 110.38 71.1543 105.142C71.3393 105.04 71.5266 104.935 71.7182 104.826C71.9612 104.688 71.9612 104.688 72.2086 104.547C72.6076 104.351 72.6076 104.351 73.0533 104.351Z" fill="black"/>
<path d="M73.0534 43.9492C73.0534 49.8334 73.0534 55.7176 73.0534 61.7801C67.0956 61.7801 61.1379 61.7801 54.9996 61.7801C55.8221 60.5475 56.5465 59.471 57.4937 58.3677C57.5963 58.2451 57.701 58.1248 57.8058 57.9999C58.7463 56.9078 59.7204 55.8469 60.7033 54.7948C61.2048 54.2421 61.6684 53.6715 62.132 53.0875C62.7159 52.4612 62.7159 52.4612 63.2464 51.9731C63.4814 51.7095 63.3699 51.821 63.5928 51.5981C63.8157 51.3752 63.7043 51.4866 63.9151 51.3045C64.2182 50.9991 64.2182 50.9991 64.6261 50.6625C65.5154 49.9092 66.3668 49.1224 67.216 48.3222C68.5221 47.1008 69.8661 45.953 71.2703 44.8408C71.56 44.5934 71.56 44.5934 71.8543 44.3393C72.3847 43.9492 72.3847 43.9492 73.0534 43.9492Z" fill="black"/>
<path d="M77.0653 0.709343C78.2957 1.52956 78.8707 2.40996 79.2942 3.82974C79.555 5.22501 79.1359 6.43082 78.4026 7.6188C77.5289 8.63293 76.3387 9.26593 75.0237 9.48213C73.6552 9.56905 72.7569 9.15894 71.7161 8.28746C70.6462 7.22652 70.0912 6.2904 70.0712 4.77701C70.1001 3.34385 70.3854 2.32749 71.3572 1.25987C73.0556 -0.282499 75.1151 -0.33822 77.0653 0.709343Z" fill="black"/>
<path d="M76.9401 125.205C78.2172 126.42 79.0909 127.302 79.1422 129.132C79.1243 130.521 78.8078 131.519 77.8695 132.554C76.6904 133.621 75.4066 133.911 73.8553 133.869C72.5693 133.655 71.6532 132.961 70.8976 131.921C70.2223 130.704 69.8902 129.582 70.1554 128.201C70.5856 126.821 71.4147 125.878 72.6072 125.08C73.9846 124.621 75.6183 124.605 76.9401 125.205Z" fill="black"/>
<path fill-rule="evenodd" clip-rule="evenodd" d="M66.4248 5.56518L66.4079 5.46074C60.9828 5.35153 54.9694 7.84339 50.1484 10.1436C50.0558 10.1892 49.964 10.2332 49.8726 10.277L49.8723 10.2772L49.872 10.2773C49.8117 10.3062 49.7516 10.3351 49.6914 10.3642C45.2025 12.4883 40.9209 14.9869 37.0159 18.0605C36.7797 18.2477 36.5479 18.4305 36.3183 18.611C32.0723 21.8295 28.3078 25.9306 25.2208 30.2679C25.1297 30.3969 25.0407 30.5214 24.9518 30.6459L24.9515 30.6463L24.9511 30.6468C21.9979 34.7858 19.7311 39.2302 17.8121 43.9331C17.7389 44.1128 17.6679 44.288 17.5969 44.4633L17.5969 44.4634L17.5959 44.4658C15.6345 49.2467 13.6686 54.9838 13.5728 60.1948C13.5739 60.2956 13.5745 60.3947 13.575 60.4933V60.4935C13.5756 60.5932 13.5761 60.6924 13.5773 60.7922C13.5795 61.0951 13.5795 61.0953 13.5795 61.3936V61.3939C13.5806 61.4713 13.5812 61.5471 13.5817 61.6223V61.6224C13.5823 61.6987 13.5828 61.7745 13.584 61.8509L13.5707 61.8508C12.1821 61.8464 10.7957 61.8419 9.40707 61.8397C9.12289 61.8397 8.83927 61.8392 8.55564 61.8386C8.27202 61.838 7.9884 61.8375 7.70422 61.8375C6.8684 61.833 6.03035 61.8308 5.1923 61.8308L5.191 61.8308L5.18031 61.8307C4.98545 61.8297 4.88717 61.8291 4.78888 61.8288C4.69082 61.8286 4.59276 61.8286 4.39883 61.8286C4.00722 61.8263 4.00655 61.8263 3.62514 61.8263H3.62318H2.90549C2.84932 61.8261 2.79509 61.8257 2.74251 61.8253L2.74122 61.8253C2.20405 61.821 1.8385 61.8181 1.32523 62.0737C0.594166 62.68 0.250921 63.0411 0.00128864 63.9683C-0.0187711 65.1184 0.190741 65.5909 0.95524 66.4468C1.771 67.1043 1.771 67.1043 3.69005 67.1043L3.76179 67.1024L3.76263 67.1024C3.991 67.0963 4.21295 67.0905 4.43671 67.0865C5.23242 67.082 6.02812 67.0753 6.82383 67.0619C7.37658 67.0508 7.92933 67.0441 8.48209 67.0374C9.96428 67.0263 11.4487 67.0084 12.9309 66.9839L13.3611 66.9772C13.4302 70.6638 13.6397 74.2411 14.3373 77.8697L14.3839 78.1038C14.415 78.2597 14.4457 78.414 14.4755 78.5673C15.5297 84.0392 17.3128 89.1945 19.8248 94.1693L20.4934 93.9464C20.5447 93.7904 20.5959 93.6389 20.6472 93.4873C20.6599 93.4037 20.6733 93.3215 20.6865 93.24L20.6866 93.2399L20.6867 93.2393C20.6967 93.1776 20.7067 93.1162 20.7163 93.0549H21.1621L21.1245 93.1268C18.1189 98.875 14.0374 106.681 15.8841 113.351C16.6152 115.437 17.8344 116.979 19.8248 118.018C26.2327 120.463 26.2327 120.463 43.9098 114.162C44.0569 114.109 44.1995 114.057 44.3422 114.006C46.5153 113.222 48.6684 112.388 50.8059 111.514C50.9574 111.452 51.1045 111.392 51.2516 111.332C57.1715 108.92 62.9019 106.138 68.5454 103.147C68.9087 102.953 69.2742 102.759 69.6397 102.568C70.178 102.282 70.7168 101.997 71.2556 101.712C71.7945 101.426 72.3333 101.141 72.8716 100.856V94.3922C72.4258 94.3922 72.4258 94.3922 72.0068 94.6909L72.0064 94.6911C68.2456 97.0828 66.36 98.2818 64.398 99.339C62.4254 100.402 60.3755 101.321 56.2646 103.165L56.2644 103.165L56.2628 103.166C55.8726 103.35 55.8716 103.35 55.488 103.53L55.4865 103.531C47.3088 107.378 37.4439 111.837 28.2744 111.862C26.7654 111.831 25.5864 111.521 24.5054 110.44C23.596 108.811 23.7297 107.335 24.1532 105.592C24.1863 105.467 24.2181 105.342 24.2497 105.219L24.2498 105.218L24.25 105.218L24.2825 105.091L24.2826 105.09C24.4297 104.495 24.5767 103.9 24.7282 103.308C25.0893 103.689 25.4615 104.059 25.8427 104.422C25.8731 104.463 25.8923 104.489 25.912 104.515C25.9459 104.558 25.9813 104.601 26.0776 104.716C26.136 104.79 26.1783 104.846 26.2108 104.888C26.2696 104.965 26.2961 105 26.3269 105.03C26.3523 105.055 26.3806 105.077 26.4321 105.117L26.4322 105.117C26.4483 105.129 26.4668 105.144 26.4882 105.161C26.5001 105.17 26.513 105.18 26.5269 105.191C26.6406 105.318 26.7498 105.441 26.859 105.563L26.8612 105.566C27.0485 105.777 27.0492 105.778 27.2335 105.987C27.3072 106.069 27.3796 106.151 27.4514 106.232L27.4536 106.234C27.5112 106.299 27.5685 106.364 27.6258 106.428C28.3167 107.239 29.021 108.035 29.7499 108.813C29.8457 108.912 29.9406 109.01 30.0349 109.107L30.0393 109.111L30.1672 109.243C30.2258 109.303 30.2843 109.363 30.3427 109.424L30.3429 109.424C30.8955 109.994 30.8955 109.994 31.4148 110.44C31.9453 110.638 32.2729 110.667 32.8368 110.585L32.9387 110.56L32.9402 110.559L32.9435 110.559C33.1042 110.519 33.261 110.48 33.4163 110.44C33.5769 110.401 33.6566 110.381 33.7363 110.362C33.8148 110.343 33.8934 110.324 34.0493 110.286C34.2684 110.231 34.483 110.176 34.6977 110.12L34.6981 110.12L34.7024 110.119C35.4646 109.932 36.2269 109.742 36.987 109.548V109.103C36.7195 108.817 36.452 108.532 36.1712 108.26C33.978 106.149 31.8918 103.974 30.102 101.507C29.9415 101.286 29.7855 101.07 29.6317 100.856C29.4601 100.631 29.2929 100.41 29.128 100.192C29.0333 100.065 28.9401 99.9412 28.8474 99.8183C28.7788 99.7271 28.7104 99.6364 28.6421 99.5453C28.2097 98.9747 27.8576 98.4198 27.5255 97.7823C27.3739 96.893 27.5567 96.4784 27.94 95.6827C28.0336 95.5044 28.1228 95.3306 28.2097 95.1589C29.1971 93.1686 30.2759 91.2317 31.3992 89.3149C31.7313 88.751 32.0634 88.1848 32.3911 87.6187C35.2306 82.7085 38.4179 77.9521 41.8057 73.4053C41.8401 73.36 41.8739 73.315 41.9075 73.2701C41.9307 73.2391 41.9538 73.2082 41.9768 73.1774L41.9774 73.1767L41.9793 73.1741C42.0239 73.1143 42.0684 73.0547 42.1133 72.9952C43.25 71.4684 44.4269 69.9818 45.6661 68.5374C46.3548 67.7484 46.9188 66.9928 47.4626 66.0857H16.9272V62.2966C21.0952 62.3301 25.2632 62.359 29.4334 62.3746C31.4594 62.3836 33.4854 62.3925 35.5137 62.4081C37.2923 62.4237 39.0732 62.437 40.854 62.4415H40.8547C41.7928 62.4437 42.7332 62.446 43.6735 62.4549C44.574 62.466 45.4722 62.4749 46.3727 62.4749C46.7025 62.4727 47.0346 62.4727 47.3667 62.4727C48.2293 62.4905 49.083 62.4905 49.9433 62.4393C50.6677 62.2788 50.8906 62.1272 51.3207 61.5344C52.3661 59.3211 54.1737 57.3196 55.8476 55.5543C56.3635 55.0218 56.7392 54.5677 57.2317 53.9724L57.352 53.827C57.4435 53.7165 57.5026 53.6622 57.5953 53.577L57.5956 53.5767C57.6225 53.552 57.6522 53.5247 57.6864 53.4926C57.7953 53.3905 57.8156 53.3691 57.8562 53.3265L57.8562 53.3264C57.8859 53.2952 57.9265 53.2525 58.0207 53.1583C58.1528 52.9997 58.2451 52.8864 58.3177 52.7973L58.3177 52.7973C58.551 52.5108 58.5802 52.4749 59.0749 51.9904C59.1402 51.9251 59.2049 51.861 59.269 51.7975L59.377 51.6903L59.4561 51.6115C61.1344 49.9398 62.8685 48.3373 64.6515 46.7793C65.1218 46.3737 65.5832 45.9636 66.0424 45.549C66.7779 44.8781 67.5112 44.2117 68.2801 43.5831L68.3835 43.5013C68.5303 43.385 68.6746 43.2708 68.8173 43.1552C69.1962 42.8409 69.584 42.5356 69.9741 42.2369C70.801 41.7733 71.5565 41.3275 72.2475 40.6745C73.3017 39.4263 73.3017 39.4263 73.1769 34.5719C73.1591 33.8341 73.1479 33.0964 73.1435 32.3586C73.1368 30.9633 73.119 29.5681 73.09 28.1728C73.0566 26.5725 73.0365 24.9744 73.0209 23.3741C72.9897 19.9283 72.9384 16.4847 72.8716 13.0389C72.7663 13.0188 72.6648 12.9988 72.5633 12.9787L72.4615 12.9586L72.4613 12.9586L72.461 12.9585C72.1875 12.9007 72.1871 12.9006 71.9203 12.845L71.9198 12.845C71.2066 12.7001 70.665 12.5218 70.0588 12.1206C67.9436 10.4422 66.9384 8.50536 66.4747 5.87754C66.4583 5.77192 66.4417 5.66997 66.4253 5.56807L66.4252 5.56794L66.4248 5.56518ZM31.4415 44.4714C32.5582 45.2582 33.4743 46.2144 33.8376 47.5651C33.8554 48.0844 33.8576 48.6037 33.8376 49.1253H34.5062V50.9083H27.151C27.5463 52.2927 27.6848 52.7777 27.9943 53.0967C28.1612 53.2687 28.3778 53.3925 28.7112 53.583C29.2944 53.665 29.5795 53.7051 29.8546 53.6688C30.1178 53.634 30.3717 53.5293 30.8687 53.3244L30.8687 53.3244C30.9802 53.2197 31.0894 53.1171 31.2053 53.0102C31.8316 52.4685 31.8316 52.4685 32.4445 52.4819C32.6774 52.5792 32.8021 52.6313 32.9136 52.7038C33.0421 52.7875 33.153 52.8984 33.3918 53.1372C33.3717 53.9084 33.1845 54.2316 32.6942 54.8356C31.553 55.7784 30.4609 56.1684 28.9943 56.1105C27.8018 55.9277 26.859 55.3861 26.0655 54.4879C25.1963 53.2353 25.0938 52.3972 25.145 50.9083H24.2535V49.1253H25.145C25.1367 49.005 25.128 48.8846 25.1191 48.7639L25.1191 48.7634L25.1191 48.763L25.119 48.7626C25.1089 48.6242 25.0988 48.4853 25.0893 48.3452C25.0938 47.1081 25.515 46.123 26.3553 45.2136C27.833 43.912 29.6808 43.4372 31.4415 44.4714ZM29.2564 45.8159C30.1524 45.9764 30.5202 46.1993 31.151 46.8456C31.5968 47.5243 31.5967 47.7682 31.5967 48.616V48.6287H27.139C27.3842 47.1532 27.6628 46.1012 29.2564 45.8159ZM52.5185 29.4004C52.6858 29.3993 52.7703 29.3987 52.8547 29.3979C52.9405 29.3971 53.0263 29.396 53.1991 29.3937H53.9413C54.1909 29.3937 54.4405 29.3937 54.6991 29.3915C54.8751 29.3915 55.0513 29.3912 55.2277 29.391H55.2284C55.5811 29.3905 55.9341 29.39 56.286 29.3915C57.0996 29.3915 57.9109 29.387 58.7222 29.3803H60.2645L60.2651 29.3803C60.4458 29.3792 60.5371 29.3787 60.6284 29.3779C60.6781 29.3774 60.7277 29.3769 60.7918 29.3762C60.8478 29.3755 60.9147 29.3747 61.0023 29.3737L61.6888 29.3781H62.2928C62.9057 29.4784 63.1019 29.6367 63.4696 30.1292L63.4697 30.1293C63.5109 30.4079 63.5315 30.5472 63.5315 30.6865C63.5315 30.8257 63.5109 30.965 63.4697 31.2436L63.4696 31.2437C63.1019 31.7385 62.9035 31.8967 62.2928 31.9993H61.6888L61.0023 32.0059L60.2645 32.0015C60.0795 32.0026 59.9859 32.0031 59.8923 32.0034C59.7965 32.0037 59.7007 32.0037 59.5067 32.0037C58.9763 32.0037 58.448 32.0037 57.9176 32.0015C57.2685 31.9979 56.6179 32.0001 55.9683 32.0022L55.9673 32.0022L55.4814 32.0037C54.9666 32.0037 54.4539 32.0037 53.9413 32.0015C53.6961 32.0037 53.4509 32.0059 53.1991 32.0059L52.517 31.9993H51.9152L51.7551 31.9702C51.6487 31.9509 51.5422 31.9316 51.4338 31.9123C50.9212 31.1434 50.91 30.8113 50.988 29.9064C51.4958 29.3985 51.6994 29.399 52.3086 29.4005H52.3088C52.3733 29.4007 52.4425 29.4008 52.517 29.4004L52.5185 29.4004ZM57.6177 24.3401C57.5194 24.3043 57.4154 24.284 57.2416 24.2499C56.2186 24.1942 55.6346 24.2499 55.2223 25.2262C55.1042 26.033 55.1198 26.4075 55.57 27.0939C56.3234 27.5954 56.7892 27.5821 57.674 27.455C57.9497 27.272 58.0857 27.1817 58.198 27.0681C58.3072 26.9576 58.3941 26.825 58.5656 26.5635C58.6993 25.7611 58.6681 25.3866 58.2313 24.6979C57.898 24.4806 57.764 24.3933 57.6177 24.3401Z" fill="black"/>
<path fill-rule="evenodd" clip-rule="evenodd" d="M82.8604 5.16702C84.2312 5.10239 85.466 5.34088 86.8033 5.63954L87.1403 5.71503L87.4875 5.79333C93.8688 7.25324 100.424 9.63143 105.818 13.4138C105.595 13.8596 105.595 13.8596 104.942 14.0847L104.71 14.1503L104.71 14.1503C104.495 14.2115 104.278 14.273 104.061 14.3321C100.783 15.3061 97.7091 16.7549 94.6734 18.3173C94.2499 18.529 93.8264 18.7385 93.4029 18.9481C92.7945 19.2489 92.1882 19.5543 91.582 19.8597C91.2655 20.0201 90.9467 20.1806 90.6302 20.3389C88.281 21.5202 86.0187 22.8196 83.7787 24.197L83.7785 24.1971L83.7782 24.1973L83.778 24.1975C83.5286 24.3511 83.2792 24.5048 83.0209 24.6628L83.0209 24.6629L83.0209 24.6629C81.4273 25.6346 81.4273 25.6346 79.9629 26.7869C79.9131 27.1036 79.8898 27.2518 79.893 27.3994C79.8958 27.5291 79.9191 27.6584 79.9629 27.9014L79.9629 27.9014L79.963 27.9014L79.9631 27.9015C80.1324 27.9911 80.2251 28.0403 80.3237 28.0694C80.4432 28.1048 80.5713 28.1108 80.8545 28.1243C81.3537 27.8434 81.7884 27.5559 82.2475 27.2193C85.9964 24.6071 90.0463 22.454 94.1139 20.3857C94.5998 20.1383 95.0857 19.8864 95.5672 19.6323C103.361 15.5758 111.845 12.5468 120.528 11.1849L120.529 11.1848L120.529 11.1848L120.529 11.1848L120.529 11.1848C120.738 11.1469 120.948 11.1091 121.163 11.069C125.209 10.4516 129.945 10.5742 133.382 13.0037C135.651 14.8001 137.073 16.9711 137.467 19.8775C138.06 27.2305 134.82 34.3807 131.227 40.6059L131.004 40.8288C131.093 42.1482 131.409 43.198 131.922 44.4083C133.242 47.6713 134.236 51.0258 134.973 54.4671C135.038 54.7636 135.038 54.7636 135.105 55.0667C135.497 56.9985 135.673 58.9574 135.849 60.9174L135.849 60.9175L135.849 60.9175L135.849 60.9176C135.869 61.1308 135.888 61.344 135.907 61.5571L136.355 61.5504C137.895 61.5304 139.436 61.517 140.976 61.5081C141.551 61.5036 142.126 61.497 142.701 61.4903C143.525 61.4791 144.352 61.4747 145.179 61.4702C145.436 61.4657 145.692 61.4613 145.957 61.4568C147.357 61.4568 148.222 61.4947 149.28 62.4487C149.743 63.0122 149.731 63.3343 149.707 64.0067L149.707 64.0085C149.704 64.0749 149.702 64.1447 149.699 64.2184C149.557 65.101 149.271 65.6137 148.612 66.2377C147.816 66.6233 147.185 66.7392 146.307 66.7348H145.605C145.233 66.7303 145.233 66.7303 144.856 66.7281L144.854 66.7281C144.598 66.7259 144.341 66.7259 144.078 66.7259C143.266 66.7236 142.456 66.717 141.643 66.7103L141.633 66.7103C141.357 66.7091 141.08 66.7086 140.803 66.708C140.526 66.7075 140.249 66.7069 139.973 66.7058C138.618 66.7013 137.262 66.6924 135.907 66.6835L135.916 67.5594C135.932 69.7014 135.921 71.8121 135.658 73.9407C135.629 74.1814 135.6 74.4199 135.568 74.6673C133.612 89.7722 125.94 105.365 113.772 114.84C113.402 115.121 113.03 115.395 112.656 115.667C112.266 115.952 111.88 116.244 111.497 116.539C105.087 121.391 98.0746 124.672 90.4385 127.086L90.2035 127.161L89.9616 127.239C87.755 127.944 85.1985 128.646 82.8604 128.646C82.8114 128.461 82.7624 128.274 82.7133 128.082C82.0313 125.666 81.1286 123.889 79.0714 122.405L76.6196 121.291V101.899L79.0714 100.562C84.5722 97.542 89.8635 94.0695 94.9364 90.3785C95.3888 90.0531 95.8435 89.7299 96.2982 89.4067C98.4424 87.8844 100.509 86.2908 102.532 84.6124C103.076 84.1622 103.624 83.7187 104.173 83.2751C106.362 81.4809 108.495 79.6287 110.572 77.7074C111.207 77.1235 111.851 76.5551 112.504 75.989C113.041 75.5187 113.574 75.044 114.107 74.5692C114.285 74.4087 114.461 74.2505 114.646 74.0855C115.21 73.564 115.752 73.0246 116.293 72.4785L116.431 72.3431L116.575 72.2008L116.578 72.1978C116.679 72.0986 116.781 71.9986 116.884 71.8968C117.934 70.8582 118.955 69.8106 119.911 68.685C120.504 68.0207 121.14 67.4014 121.778 66.7812L121.906 66.6568C122.325 66.2645 122.325 66.2645 122.534 65.792H131.895L131.672 62.2258L107.601 62.0029C107.839 60.8127 108.013 60.592 108.827 59.7607C109.903 58.624 110.846 57.4293 111.766 56.1611C112.04 55.7857 112.32 55.4135 112.599 55.0418L112.752 54.8394C116.269 50.1543 119.481 45.262 122.3 40.1267C122.461 39.8458 122.628 39.5672 122.799 39.2931C123.045 38.9127 123.167 38.7249 123.242 38.5203C123.316 38.3207 123.346 38.1051 123.406 37.6794C123.371 37.6088 123.337 37.5388 123.303 37.4681L123.303 37.468L123.254 37.3679L123.203 37.2626L123.203 37.2621L123.202 37.2609C123.122 37.0898 123.042 36.9188 122.96 36.741C121.745 34.4966 120.299 32.4126 118.707 30.42C118.444 30.0901 118.186 29.758 117.929 29.4237C116.775 27.9281 115.498 26.5997 114.158 25.2736C113.797 24.9169 113.438 24.5581 113.079 24.1992C112.466 23.5828 112.16 23.2746 111.841 22.9792C111.523 22.684 111.193 22.4015 110.534 21.8367C110.469 21.7828 110.404 21.7289 110.338 21.6748L110.337 21.6734L110.336 21.673C110.242 21.5955 110.148 21.5174 110.052 21.4377V20.9919C110.735 20.7601 111.417 20.535 112.101 20.3099C112.197 20.2762 112.295 20.243 112.393 20.2096L112.393 20.2095L112.393 20.2094L112.393 20.2093C112.49 20.1765 112.587 20.1435 112.685 20.1093C112.872 20.0491 113.059 19.9889 113.253 19.9243L113.772 19.7527C114.392 19.6345 114.8 19.6969 115.402 19.8775C115.885 20.2586 116.313 20.6353 116.752 21.061L117.134 21.4243C117.397 21.6762 117.657 21.928 117.916 22.1799C118.274 22.5273 118.635 22.8703 118.996 23.2133L118.996 23.2135L118.997 23.2141C120.646 24.801 122.055 26.5195 123.426 28.3471C123.617 28.6012 123.809 28.8553 124.001 29.1072C124.48 29.7446 124.957 30.3821 125.432 31.0218C125.485 31.089 125.538 31.1562 125.591 31.2237C125.667 31.3197 125.743 31.4162 125.822 31.5144C125.967 31.7219 126.036 31.8214 126.069 31.9319C126.1 32.0339 126.1 32.1452 126.1 32.3591H126.546C126.561 32.2263 126.577 32.0935 126.593 31.9581L126.611 31.8108C126.802 30.8584 127.15 30.0254 127.521 29.1362L127.536 29.1005C128.166 27.5202 128.646 26.0425 128.775 24.3352C128.783 24.2306 128.792 24.126 128.801 24.0207C128.814 23.8792 128.826 23.7364 128.837 23.5908C128.902 22.2022 128.857 21.1524 128.004 20.0201C126.517 18.4287 124.589 17.8715 122.436 17.7824C122.024 17.7801 121.609 17.7824 121.197 17.7868L120.526 17.7935C111.445 17.9764 102.662 22.3577 94.6408 26.3587C94.3535 26.502 94.0672 26.6448 93.7818 26.7869L93.5539 26.9C93.4033 26.9748 93.2514 27.0503 93.0976 27.1257C88.076 29.6265 83.3173 32.5775 78.6902 35.7403L78.5337 35.8468L78.5328 35.8474L78.5324 35.8477C78.376 35.954 78.2196 36.0604 78.0595 36.1704C77.8946 36.2831 77.7315 36.3957 77.5637 36.5116L77.5624 36.5124L77.562 36.5127L77.5617 36.5129L77.5089 36.5493C77.2717 36.6924 77.1613 36.759 77.0418 36.7899C76.9378 36.8168 76.8269 36.8168 76.6196 36.8168V12.7451L78.8485 11.8536C79.2296 11.5683 79.6041 11.2763 79.9629 10.9621C80.0359 10.9621 80.1393 10.8422 80.2435 10.7215C80.3493 10.599 80.4559 10.4756 80.5322 10.4756C80.5621 10.4126 80.6566 10.3074 80.7519 10.2013L80.7519 10.2013L80.7519 10.2012L80.7519 10.2012C80.8488 10.0934 80.9465 9.98466 80.978 9.91838C81.1555 9.57497 81.1887 9.52884 81.279 9.40355C81.3281 9.33531 81.3942 9.24358 81.5097 9.06753C82.2631 7.83051 82.5841 6.58012 82.8604 5.16702ZM86.8462 106.713L87.5149 106.704C87.6325 106.704 87.7501 106.704 87.8685 106.705H87.8709C87.9918 106.706 88.1136 106.706 88.237 106.706C88.4754 106.706 88.7139 106.704 88.9584 106.702H88.9588L88.9621 106.702L88.9792 106.702C89.4963 106.702 90.0156 106.702 90.5327 106.704C91.3239 106.706 92.115 106.7 92.9083 106.693L92.9154 106.693C93.4169 106.691 93.9206 106.691 94.4221 106.693L95.1442 106.684L95.3904 106.687L95.4752 106.688L95.586 106.689L95.8129 106.691H96.4035C96.9028 106.802 96.9028 106.802 97.3062 107.212C97.4241 107.426 97.4896 107.545 97.5234 107.672C97.5657 107.831 97.5586 108.004 97.5425 108.391C97.4535 108.685 97.4054 108.843 97.3148 108.972C97.2079 109.125 97.0418 109.235 96.6799 109.477C96.4572 109.504 96.3375 109.519 96.2174 109.528C96.0779 109.538 95.9378 109.539 95.6353 109.541H95.635H95.6348H95.6346L94.9949 109.55L94.7922 109.551L94.6561 109.552C94.5686 109.552 94.4812 109.552 94.304 109.552C94.1868 109.554 94.0697 109.554 93.9518 109.555H93.9496C93.8325 109.555 93.7147 109.556 93.5952 109.557C93.0981 109.559 92.6033 109.559 92.1063 109.559C91.5392 109.561 90.9708 109.566 90.4021 109.572L90.4007 109.572L89.8284 109.577C89.347 109.579 88.8655 109.579 88.3841 109.579L88.1544 109.584L88.0448 109.586C87.9578 109.587 87.8709 109.588 87.6954 109.59H87.6953H87.6952H87.6951C86.7142 109.583 86.3466 109.581 86.029 109.453C85.8387 109.377 85.6664 109.256 85.3908 109.062C85.0141 108.469 84.965 108.162 85.0899 107.471C85.6092 106.78 86.0015 106.717 86.8462 106.713ZM92.4081 111.275C92.3129 111.235 92.2098 111.214 92.0266 111.177C91.0325 111.119 90.404 111.15 89.9939 112.153C89.9069 112.96 89.9047 113.508 90.2301 114.255C90.4138 114.404 90.5195 114.489 90.6388 114.546C90.8005 114.622 90.9873 114.646 91.4269 114.701L91.427 114.701L91.5519 114.686C92.2904 114.598 92.6282 114.558 93.1143 113.936C93.2146 113.023 93.2279 112.441 92.8914 111.596C92.6405 111.408 92.5308 111.326 92.4081 111.275ZM92.2216 101.008C92.5493 101.237 92.7131 101.352 92.8524 101.492C92.9917 101.631 93.1065 101.795 93.336 102.122L93.336 102.122C93.336 102.911 93.2603 103.431 92.8635 104.115C92.1815 104.5 91.6488 104.445 90.8843 104.351L90.8842 104.351C90.6124 104.177 90.4764 104.09 90.365 103.979C90.2535 103.868 90.1666 103.732 89.9928 103.46C89.8657 102.575 89.8546 102.109 90.3538 101.356C91.0537 100.896 91.4014 100.856 92.2216 101.008ZM124.874 79.7084C124.799 78.5048 124.42 77.9052 123.537 77.0895C122.298 76.4921 120.94 76.501 119.637 76.9357C118.841 77.5308 118.384 77.8762 118.174 78.8614C118.128 79.9246 118.161 80.7091 118.856 81.5472C119.046 81.7233 119.229 81.8926 119.414 82.062C118.885 82.539 118.449 83.0138 118.076 83.6222C117.874 84.6408 117.954 85.5235 118.313 86.493C118.901 87.1372 119.483 87.5762 120.305 87.8571C121.578 87.9975 122.683 87.9997 123.76 87.2441C124.634 86.4574 125.024 85.8288 125.111 84.6542C125.084 83.5977 124.663 83.0695 123.94 82.334C123.873 82.2699 123.806 82.208 123.74 82.1467L123.74 82.1466C123.709 82.1183 123.679 82.0902 123.648 82.062C124.431 81.2998 124.845 80.8228 124.874 79.7084ZM122.243 83.4102C122.135 83.3305 122.006 83.2794 121.782 83.191C121.5 83.1845 121.354 83.1812 121.221 83.22C121.077 83.2617 120.948 83.3518 120.681 83.5387C120.242 84.1583 120.188 84.4414 120.306 85.1836C120.843 85.7207 121.113 85.7987 121.866 85.8522C122.126 85.7251 122.255 85.6621 122.367 85.5773C122.477 85.4941 122.572 85.39 122.758 85.1836L122.758 85.1835C122.799 84.9049 122.82 84.7656 122.82 84.6264C122.82 84.4871 122.799 84.3478 122.758 84.0692C122.5 83.6826 122.392 83.5195 122.243 83.4102ZM120.974 78.4965C121.303 78.5173 121.47 78.5279 121.634 78.5547C121.804 78.5825 121.971 78.6276 122.311 78.7193C122.568 79.1047 122.677 79.2679 122.715 79.4463C122.743 79.5775 122.732 79.7168 122.715 79.9586C122.638 80.1892 122.594 80.322 122.517 80.4325C122.414 80.5826 122.25 80.6915 121.865 80.9482L121.865 80.9482C121.319 80.8969 121.021 80.7565 120.57 80.4467C120.449 80.2686 120.383 80.1719 120.352 80.065C120.314 79.9377 120.324 79.7962 120.347 79.4861C120.434 79.2265 120.479 79.0908 120.551 78.9714C120.63 78.8406 120.741 78.7294 120.974 78.4965L120.974 78.4965Z" fill="black"/>
</svg>
